<?xml version="1.0" encoding="UTF-8" standalone="no"?>
<!-- Created with Inkscape (http://www.inkscape.org/) -->

<svg
   width="1200"
   height="630"
   viewBox="0 0 317.49999 166.6875"
   version="1.1"
   id="svg2591"
   inkscape:version="1.1.2 (0a00cf5339, 2022-02-04)"
   sodipodi:docname="arcad.svg"
   xmlns:inkscape="http://www.inkscape.org/namespaces/inkscape"
   xmlns:sodipodi="http://sodipodi.sourceforge.net/DTD/sodipodi-0.dtd"
   xmlns="http://www.w3.org/2000/svg"
   xmlns:svg="http://www.w3.org/2000/svg">
  <sodipodi:namedview
     id="namedview2593"
     pagecolor="#ffffff"
     bordercolor="#666666"
     borderopacity="1.0"
     inkscape:pageshadow="2"
     inkscape:pageopacity="0.0"
     inkscape:pagecheckerboard="0"
     inkscape:document-units="mm"
     showgrid="false"
     inkscape:zoom="0.45795779"
     inkscape:cx="886.54459"
     inkscape:cy="276.22633"
     inkscape:window-width="1920"
     inkscape:window-height="1025"
     inkscape:window-x="0"
     inkscape:window-y="0"
     inkscape:window-maximized="1"
     inkscape:current-layer="layer1"
     units="px" />
  <defs
     id="defs2588">
    <clipPath
       clipPathUnits="userSpaceOnUse"
       id="clipPath1026">
      <path
         d="M 15.307,410.485 H 440.504 V 519.732 H 15.307 Z"
         id="path1024" />
    </clipPath>
    <clipPath
       clipPathUnits="userSpaceOnUse"
       id="clipPath1054">
      <path
         d="M 15.307,410.485 H 440.504 V 519.732 H 15.307 Z"
         id="path1052" />
    </clipPath>
    <clipPath
       clipPathUnits="userSpaceOnUse"
       id="clipPath1082">
      <path
         d="M 15.307,410.485 H 440.504 V 519.732 H 15.307 Z"
         id="path1080" />
    </clipPath>
    <clipPath
       clipPathUnits="userSpaceOnUse"
       id="clipPath1106">
      <path
         d="M 15.307,410.485 H 440.504 V 519.732 H 15.307 Z"
         id="path1104" />
    </clipPath>
  </defs>
  <g
     inkscape:label="Layer 1"
     inkscape:groupmode="layer"
     id="layer1">
    <path
       id="path1014"
       style="fill:#dcdcdc;fill-opacity:1;stroke:#231f20;stroke-width:0.275409;stroke-linecap:round;stroke-linejoin:round;stroke-miterlimit:10;stroke-dasharray:none;stroke-opacity:1"
       d="m 229.00739,72.175835 -11.97684,31.617175 h 8.58093 l 1.69837,-5.140094 h 11.1052 l 2.56918,5.140094 h 8.53514 L 237.5434,72.175835 Z m 4.26756,10.278453 3.44171,9.361012 h -6.83762 z" />
    <path
       d="m 217.03045,93.55952 -3.39573,2.524098 -4.26798,0.871641 -6.01124,-2.569509 -2.5241,-5.965836 2.5241,-5.965246 2.57009,-2.570099 3.44115,-0.871639 4.26798,1.697869 3.39573,2.569509 V 73.047094 l -7.66371,-1.697868 -6.01124,1.697868 -5.96525,3.395737 -3.39633,6.011837 -1.74328,5.965246 1.74328,6.837474 3.39633,5.139612 5.96525,3.39573 6.01124,0.87164 7.66371,-1.74327 v -9.36158"
       style="fill:#dcdcdc;fill-opacity:1;stroke:#231f20;stroke-width:0.275409;stroke-linecap:round;stroke-linejoin:round;stroke-miterlimit:10;stroke-dasharray:none;stroke-opacity:1"
       id="path1018" />
    <path
       id="path1030"
       style="fill:#dcdcdc;fill-opacity:1;stroke:#231f20;stroke-width:0.275409;stroke-linecap:round;stroke-linejoin:round;stroke-miterlimit:10;stroke-dasharray:none;stroke-opacity:1"
       d="m 173.48145,71.349102 -6.01089,1.69839 -5.96595,3.39505 -3.4417,5.140091 -1.69752,5.965097 1.69752,6.837615 3.4417,6.011745 5.1401,3.39592 6.83674,0.87165 8.53514,-1.74417 2.57006,2.57004 7.66434,-0.82587 -5.0943,-5.140088 3.39591,-5.139227 0.87166,-5.965095 -1.74332,-6.837617 -3.39592,-5.140091 -5.96595,-3.39505 z m 0,7.663486 3.39592,0.871655 3.4417,2.570045 2.52427,5.965962 -1.6984,4.266707 -2.56918,-2.569183 -7.66349,1.697526 5.13922,4.268435 -2.57004,0.871656 -3.44083,-0.871656 -2.57006,-1.69839 -1.69837,-2.570045 -0.87166,-4.26757 0.87166,-2.569181 1.69837,-3.395916 2.57006,-1.69839 z" />
    <path
       id="path1038"
       style="fill:#dcdcdc;fill-opacity:1;stroke:#231f20;stroke-width:0.275409;stroke-linecap:round;stroke-linejoin:round;stroke-miterlimit:10;stroke-dasharray:none;stroke-opacity:1"
       d="m 120.48064,72.175835 11.10433,31.617175 h 7.71013 L 135.8534,91.8153 h 4.26671 l 7.71014,11.97771 h 9.40678 l -9.40678,-12.803579 5.13922,-2.569181 1.69839,-5.965962 -0.87251,-4.267569 -1.69754,-3.441701 -4.26756,-1.697526 -4.26845,-0.871657 z m 10.27846,6.836753 h 9.36187 l 4.31336,0.871655 1.69753,0.826735 v 1.74331 2.524261 l -1.69753,0.871655 -4.31336,0.871656 h -6.83762 z" />
    <path
       d="m 88.862529,95.257447 v -4.267968 l 5.139606,-1.697868 -0.871639,-1.743279 h 17.942334 l -5.96584,-31.617868 3.39574,-0.825639 18.81455,48.687965 h -12.80272 l -1.69787,-8.535343 H 88.862529"
       style="fill:#dcdcdc;fill-opacity:1;stroke:#231f20;stroke-width:0.275409;stroke-linecap:round;stroke-linejoin:round;stroke-miterlimit:10;stroke-dasharray:none;stroke-opacity:1"
       id="path1042" />
    <path
       d="m 91.432274,86.722044 0.87164,1.69787 -15.372821,5.139606 -0.871639,-1.743869 15.37282,-5.093607"
       style="fill:#dcdcdc;fill-opacity:1;stroke:#231f20;stroke-width:0.275409;stroke-linecap:round;stroke-linejoin:round;stroke-miterlimit:10;stroke-dasharray:none;stroke-opacity:1"
       id="path1046" />
    <path
       d="m 64.08243,98.653127 -1.697868,-6.837476 1.697868,-4.267378 2.569509,-1.698458 2.570097,0.87223 1.697869,2.569509 1.69787,2.524097 h 3.441738 l -3.441738,1.743869 -2.524098,-0.872229 -1.743279,5.965836 -0.82623,6.837473 -3.441738,-6.837473"
       style="fill:#dcdcdc;fill-opacity:1;stroke:#231f20;stroke-width:0.275409;stroke-linecap:round;stroke-linejoin:round;stroke-miterlimit:10;stroke-dasharray:none;stroke-opacity:1"
       id="path1058" />
    <path
       d="m 31.638923,67.035612 18.768558,6.011247 52.129709,-16.24446 0.87223,4.267377 -50.431842,20.512426 V 103.7925 H 38.476397 l 7.663707,-22.210298 -16.24505,-10.233214 1.743869,-4.313376"
       style="fill:#dcdcdc;fill-opacity:1;stroke:#231f20;stroke-width:0.275409;stroke-linecap:round;stroke-linejoin:round;stroke-miterlimit:10;stroke-dasharray:none;stroke-opacity:1"
       id="path1062" />
    <path
       d="m 51.279414,49.13893 7.663704,6.791476 2.569509,-1.697869 v -0.825639 l -5.093607,-7.709705 1.697868,-1.697869 5.139608,9.407574 2.524099,-1.743869 -1.697871,-9.361574 1.697871,-0.87164 1.743279,10.233214 h 1.697868 1.697869 l 0.872228,-10.233214 h 2.569509 l -2.569509,10.233214 3.395739,1.743869 4.267968,-9.407574 2.569507,0.826228 -5.965836,8.581346 2.570099,2.523508 7.663704,-6.791476 1.743279,1.697869 -8.580753,5.965836 1.743278,3.441737 9.361574,-4.313966 0.871638,1.743869 -35.013016,11.104852 -0.871639,-3.441148 -9.407573,0.871639 -0.82623,-2.569509 10.233803,0.871641 0.871639,-3.441738 -9.407574,-3.395737 v -1.743869 l 9.407574,3.441737 1.697868,-2.569508 -7.709114,-5.965836 0.87164,-1.697869"
       style="fill:#dcdcdc;fill-opacity:1;stroke:#231f20;stroke-width:0.275409;stroke-linecap:round;stroke-linejoin:round;stroke-miterlimit:10;stroke-dasharray:none;stroke-opacity:1"
       id="path1086" />
    <path
       d="m 69.222036,79.012693 -1.697868,1.69787 v 3.441738 l 0.826228,0.826228 h 2.569509 l 0.87164,-1.698459 0.826228,-2.569507 -1.697868,-2.524098 -1.697869,0.826228"
       style="fill:#dcdcdc;fill-opacity:1;stroke:#231f20;stroke-width:0.275409;stroke-linecap:round;stroke-linejoin:round;stroke-miterlimit:10;stroke-dasharray:none;stroke-opacity:1"
       id="path1090" />
    <path
       id="path1098"
       style="fill:#dcdcdc;fill-opacity:1;stroke:#231f20;stroke-width:0.275409;stroke-linecap:round;stroke-linejoin:round;stroke-miterlimit:10;stroke-dasharray:none;stroke-opacity:1"
       d="m 251.21777,72.174973 v 31.617167 h 11.97771 l 5.96508,-0.87165 5.13922,-3.395054 4.26845,-5.140091 h -0.0117 c 1.72913,-3.805019 1.72913,-8.171823 0,-11.976841 l -4.25636,-5.093442 -5.13923,-3.441701 -5.96508,-1.698388 z m 8.53513,6.837615 h 1.74418 l 4.26757,0.871655 2.57005,1.69839 1.69752,3.395916 0.82588,3.441701 -0.82588,4.267569 -1.69752,2.570046 -6.83762,1.697526 h -1.74418 z" />
  </g>
</svg>
